<svg width="64" height="64" viewBox="0 0 64 64" fill="none" xmlns="http://www.w3.org/2000/svg">
<path d="M40.0006 32H26.6673M40.0006 21.3333H26.6673M50.6673 45.3333V13.3333C50.6673 11.9188 50.1054 10.5623 49.1052 9.5621C48.105 8.5619 46.7485 8 45.334 8H10.6673M10.6673 8C12.0818 8 13.4384 8.5619 14.4386 9.5621C15.4387 10.5623 16.0007 11.9188 16.0007 13.3333V50.6667C16.0007 52.0812 16.5626 53.4377 17.5627 54.4379C18.5629 55.4381 19.9195 56 21.334 56M10.6673 8C9.25283 8 7.89628 8.5619 6.89608 9.5621C5.89589 10.5623 5.33398 11.9188 5.33398 13.3333V18.6667C5.33398 19.3739 5.61494 20.0522 6.11503 20.5523C6.61513 21.0524 7.29341 21.3333 8.00065 21.3333H16.0007M21.334 56H53.334C54.7485 56 56.105 55.4381 57.1052 54.4379C58.1054 53.4377 58.6673 52.0812 58.6673 50.6667V48C58.6673 47.2928 58.3864 46.6145 57.8863 46.1144C57.3862 45.6143 56.7079 45.3333 56.0006 45.3333H29.334C28.6267 45.3333 27.9485 45.6143 27.4484 46.1144C26.9483 46.6145 26.6673 47.2928 26.6673 48V50.6667C26.6673 52.0812 26.1054 53.4377 25.1052 54.4379C24.105 55.4381 22.7485 56 21.334 56Z" stroke="#0A0A0A" stroke-opacity="0.25" stroke-width="3" stroke-linecap="round" stroke-linejoin="round"/>
</svg>
