<svg width="20" height="24" viewBox="0 0 20 24" fill="none" xmlns="http://www.w3.org/2000/svg">
<path d="M13.9774 1.99902H5.50612C5.09176 1.99902 4.75586 2.35732 4.75586 2.7993C4.75586 3.24128 5.09176 3.59957 5.50612 3.59957H13.9774C14.3918 3.59957 14.7277 3.24128 14.7277 2.7993C14.7277 2.35732 14.3918 1.99902 13.9774 1.99902Z" fill="#1A68EB"/>
<path fill-rule="evenodd" clip-rule="evenodd" d="M7.08213 3.19281C7.06533 3.06476 7.05664 2.93395 7.05664 2.80096C7.05664 1.25403 8.2323 0 9.68254 0H9.80018C11.2504 0 12.4261 1.25403 12.4261 2.80096C12.4261 2.93396 12.4174 3.0648 12.4006 3.19285C11.578 2.836 10.6797 2.64003 9.7413 2.64003C8.80292 2.64003 7.90466 2.83598 7.08213 3.19281Z" fill="#1A68EB"/>
<path fill-rule="evenodd" clip-rule="evenodd" d="M2.35196 14.7235C2.29629 14.0515 2.32096 13.3586 2.43564 12.657L2.43763 12.6448C2.47702 12.4039 2.50593 12.1611 2.52426 11.9172L2.67241 9.94609C2.56761 9.93013 2.46048 9.92188 2.35155 9.92188H2.25077C1.00771 9.92188 0 10.9968 0 12.3227C0 13.6486 1.00771 14.7235 2.25077 14.7235L2.35196 14.7235Z" fill="#1A68EB"/>
<path fill-rule="evenodd" clip-rule="evenodd" d="M17.1301 14.7241C17.1857 14.0525 17.1609 13.36 17.0464 12.659L17.0444 12.6468C17.005 12.4058 16.9761 12.163 16.9577 11.9192L16.8105 9.96099C16.9393 9.93657 17.0719 9.92383 17.2072 9.92383H17.308C18.551 9.92383 19.5587 10.9987 19.5587 12.3247C19.5587 13.6506 18.551 14.7255 17.308 14.7255H17.2072C17.1814 14.7255 17.1557 14.725 17.1301 14.7241Z" fill="#1A68EB"/>
<path d="M5.42199 11.7576C5.49217 11.9981 5.74292 12.1334 5.98205 12.0599L7.32295 11.6478C7.56208 11.5743 7.69905 11.3198 7.62887 11.0793C7.55869 10.8389 7.30794 10.7036 7.06881 10.7771L5.72791 11.1892C5.48878 11.2627 5.35181 11.5172 5.42199 11.7576Z" fill="#1A68EB"/>
<path d="M11.8554 11.0779C11.7852 11.3184 11.9221 11.5729 12.1613 11.6464L13.5022 12.0585C13.7413 12.132 13.992 11.9967 14.0622 11.7562C14.1324 11.5158 13.9954 11.2613 13.7563 11.1878L12.4154 10.7757C12.1763 10.7022 11.9255 10.8375 11.8554 11.0779Z" fill="#1A68EB"/>
<path d="M6.29102 16.645C6.29102 17.0412 6.36173 17.4338 6.49937 17.8018L6.90467 18.8853L7.29036 18.3152C7.64111 17.7968 8.10972 17.3821 8.65211 17.11L9.2034 16.8335C9.6013 16.6339 9.92029 16.2908 10.1041 15.8647C10.3584 15.2751 10.3271 14.5902 10.0201 14.0297L9.7428 13.5234H9.21746C7.60123 13.5234 6.29102 14.921 6.29102 16.645Z" fill="#1A68EB"/>
<path d="M13.1953 16.7053C13.1953 17.0624 13.139 17.4169 13.0286 17.754L12.6584 18.8853L12.1972 18.2561C11.8448 17.7753 11.3914 17.3895 10.8737 17.1298L10.2829 16.8335C9.88503 16.6339 9.56604 16.2908 9.38226 15.8647C9.12793 15.2751 9.15927 14.5902 9.46623 14.0297L9.74353 13.5234H10.2123C11.8598 13.5234 13.1953 14.948 13.1953 16.7053Z" fill="#1A68EB"/>
<path d="M8.41626 10.5706C7.7149 11.6981 8.4728 13.2047 9.74135 13.2047C11.0099 13.2047 11.7678 11.6981 11.0664 10.5706L10.7102 9.99791C10.4948 9.65156 10.131 9.44336 9.74135 9.44336C9.35168 9.44336 8.98792 9.65156 8.77247 9.99791L8.41626 10.5706Z" fill="#1A68EB"/>
<path d="M4.79927 8.0186C4.52929 8.64318 4.53329 9.3634 4.81019 9.98452L5.14026 10.7249L5.16774 10.3138C5.2179 9.56373 5.78006 8.96859 6.48365 8.92071L6.59467 8.91316C6.86833 8.89454 7.12601 8.76922 7.31866 8.56106L7.40254 8.47041C7.78556 8.05654 7.78556 7.39115 7.40254 6.97729C7.16392 6.71943 6.81857 6.60903 6.48632 6.68439L6.09876 6.77229C5.56794 6.89268 5.12149 7.27318 4.89426 7.79886L4.79927 8.0186Z" fill="#1A68EB"/>
<path d="M14.6832 8.0186C14.9531 8.64318 14.9491 9.3634 14.6722 9.98452L14.3422 10.7249L14.3147 10.3138C14.2645 9.56373 13.7024 8.96859 12.9988 8.92071L12.8877 8.91316C12.6141 8.89454 12.3564 8.76922 12.1638 8.56106L12.0799 8.47041C11.6969 8.05654 11.6969 7.39115 12.0799 6.97729C12.3185 6.71943 12.6639 6.60903 12.9961 6.68439L13.3837 6.77229C13.9145 6.89268 14.3609 7.27318 14.5882 7.79886L14.6832 8.0186Z" fill="#1A68EB"/>
<path d="M2.33984 11.1234H3.34279V10.5501C3.34279 9.92273 3.43751 9.29944 3.6233 8.70418L3.69906 8.46147C3.97231 7.58599 4.46967 6.80947 5.13492 6.21965C6.09985 5.36413 7.34857 4.96213 8.59611 5.1054L9.78036 5.24139V2.44043C5.67107 2.44043 2.33984 5.99374 2.33984 10.377V11.1234Z" fill="#1A68EB"/>
<path d="M7.88093 23.5053C4.29943 22.8363 1.77456 19.3833 2.03845 15.5151L2.34079 11.0833H3.34374V16.5277C3.34374 16.9924 3.49183 17.4432 3.76371 17.8062L4.26732 18.4786C5.75576 20.4659 8.66614 20.174 9.7813 17.9257V23.9277L8.11914 23.5543C8.04 23.5365 7.96059 23.5202 7.88093 23.5053Z" fill="#1A68EB"/>
<path d="M17.2227 11.1234H16.2197V10.5501C16.2197 9.92273 16.125 9.29944 15.9392 8.70418L15.8634 8.46147C15.5902 7.58599 15.0928 6.80947 14.4276 6.21965C13.4627 5.36413 12.2139 4.96213 10.9664 5.1054L9.78215 5.24139V2.44043C13.8914 2.44043 17.2227 5.99374 17.2227 10.377V11.1234Z" fill="#1A68EB"/>
<path d="M11.6816 23.5053C15.2631 22.8363 17.7879 19.3833 17.5241 15.5151L17.2217 11.0833H16.2188V16.5277C16.2188 16.9924 16.0707 17.4432 15.7988 17.8062L15.2952 18.4786C13.8067 20.4659 10.8964 20.174 9.7812 17.9257V23.9277L11.4434 23.5543C11.5225 23.5365 11.6019 23.5202 11.6816 23.5053Z" fill="#1A68EB"/>
<path d="M17.2227 10.377V11.1234H16.6032V10.4683C16.6032 9.89417 16.528 9.32291 16.3797 8.77105L16.2581 8.31869C15.9801 7.28427 15.3842 6.37955 14.5661 5.74982C13.5184 4.94327 12.1961 4.65616 10.9361 4.96162L9.78215 5.24139V2.44043C13.8914 2.44043 17.2227 5.99374 17.2227 10.377Z" fill="#1A68EB"/>
</svg>
