<svg width="14" height="14" viewBox="0 0 14 14" fill="none" xmlns="http://www.w3.org/2000/svg">
<path d="M11.2109 2.19629C11.281 2.39306 11.3914 2.57294 11.5361 2.72363C11.6833 2.87679 11.862 2.9964 12.0596 3.07422L12.1436 3.10742L12.0596 3.14062C11.8619 3.21846 11.6833 3.33801 11.5361 3.49121C11.3916 3.64166 11.281 3.82118 11.2109 4.01758C11.1409 3.82131 11.0311 3.64158 10.8867 3.49121C10.7396 3.33802 10.5609 3.21846 10.3633 3.14062L10.2783 3.10742L10.3633 3.07422C10.5609 2.99639 10.7396 2.87679 10.8867 2.72363C11.0313 2.57301 11.1409 2.39294 11.2109 2.19629Z" fill="white" stroke="white" stroke-width="1.2"/>
<mask id="path-2-inside-1_1272_6024" fill="white">
<path d="M12.0559 6.69662C12.3568 6.56023 12.7396 6.72544 12.742 7.0558C12.7421 7.07035 12.7422 7.08495 12.7422 7.09955C12.7422 10.2709 10.1713 12.8417 7 12.8417C6.86755 12.8417 6.73619 12.8373 6.60598 12.8285C6.55638 12.8372 6.50524 12.8417 6.45312 12.8417H2.13281C1.64954 12.8417 1.25781 12.45 1.25781 11.9667V6.93549C1.25781 6.90016 1.25989 6.86533 1.26399 6.83109C1.40421 3.78445 3.91869 1.35742 7 1.35742C7.16335 1.35742 7.32512 1.3642 7.48502 1.3776C7.81446 1.40516 7.9508 1.79815 7.79133 2.08772C7.69748 2.25812 7.51291 2.36509 7.31883 2.3523C7.2127 2.34527 7.10636 2.34175 7 2.34174C4.44719 2.34174 2.36348 4.35277 2.24733 6.87637L2.24569 6.91198L2.24219 6.94129V11.8574H6.44443L6.55309 11.8382L6.67253 11.8463C6.78059 11.8536 6.8898 11.8574 7 11.8574C9.62768 11.8574 11.7578 9.72723 11.7578 7.09955C11.7578 6.93281 11.8601 6.78237 12.0129 6.7157C12.0273 6.70947 12.0416 6.70307 12.0559 6.69662Z"/>
</mask>
<path d="M12.0559 6.69662C12.3568 6.56023 12.7396 6.72544 12.742 7.0558C12.7421 7.07035 12.7422 7.08495 12.7422 7.09955C12.7422 10.2709 10.1713 12.8417 7 12.8417C6.86755 12.8417 6.73619 12.8373 6.60598 12.8285C6.55638 12.8372 6.50524 12.8417 6.45312 12.8417H2.13281C1.64954 12.8417 1.25781 12.45 1.25781 11.9667V6.93549C1.25781 6.90016 1.25989 6.86533 1.26399 6.83109C1.40421 3.78445 3.91869 1.35742 7 1.35742C7.16335 1.35742 7.32512 1.3642 7.48502 1.3776C7.81446 1.40516 7.9508 1.79815 7.79133 2.08772C7.69748 2.25812 7.51291 2.36509 7.31883 2.3523C7.2127 2.34527 7.10636 2.34175 7 2.34174C4.44719 2.34174 2.36348 4.35277 2.24733 6.87637L2.24569 6.91198L2.24219 6.94129V11.8574H6.44443L6.55309 11.8382L6.67253 11.8463C6.78059 11.8536 6.8898 11.8574 7 11.8574C9.62768 11.8574 11.7578 9.72723 11.7578 7.09955C11.7578 6.93281 11.8601 6.78237 12.0129 6.7157C12.0273 6.70947 12.0416 6.70307 12.0559 6.69662Z" fill="white"/>
<path d="M12.0559 6.69662L12.5503 7.79006L12.5513 7.78957L12.0559 6.69662ZM12.742 7.0558L11.5421 7.06474L11.5421 7.06483L12.742 7.0558ZM6.60598 12.8285L6.68693 11.6312L6.54128 11.6213L6.39751 11.6467L6.60598 12.8285ZM1.26399 6.83109L2.45547 6.97384L2.4607 6.93019L2.46272 6.88626L1.26399 6.83109ZM7.48502 1.3776L7.38483 2.57341L7.38497 2.57342L7.48502 1.3776ZM7.79133 2.08772L6.74018 1.50884L6.74018 1.50885L7.79133 2.08772ZM7.31883 2.3523L7.23953 3.54967L7.23988 3.5497L7.31883 2.3523ZM7 2.34174L7.00007 1.14174H7V2.34174ZM2.24733 6.87637L3.44606 6.93162L3.44606 6.93155L2.24733 6.87637ZM2.24569 6.91198L3.43722 7.05425L3.4424 7.01087L3.44442 6.96722L2.24569 6.91198ZM2.24219 6.94129L1.05065 6.79902L1.04219 6.8699V6.94129H2.24219ZM2.24219 11.8574H1.04219V13.0574H2.24219V11.8574ZM6.44443 11.8574V13.0574H6.54931L6.6526 13.0392L6.44443 11.8574ZM6.55309 11.8382L6.63422 10.641L6.48863 10.6311L6.34492 10.6564L6.55309 11.8382ZM6.67253 11.8463L6.75372 10.6491L6.75366 10.6491L6.67253 11.8463ZM12.0129 6.7157L11.5357 5.61468L11.5332 5.61576L12.0129 6.7157ZM12.0559 6.69662L12.5513 7.78957C12.3696 7.87196 12.1649 7.8681 11.9823 7.7785C11.7758 7.67719 11.5447 7.4252 11.5421 7.06474L12.742 7.0558L13.942 7.04687C13.9368 6.35604 13.5132 5.85626 13.0394 5.62385C12.5896 5.40316 12.0431 5.38488 11.5605 5.60366L12.0559 6.69662ZM12.742 7.0558L11.5421 7.06483C11.5421 7.07637 11.5422 7.08796 11.5422 7.09955H12.7422H13.9422C13.9422 7.08194 13.9421 7.06434 13.942 7.04678L12.742 7.0558ZM12.7422 7.09955H11.5422C11.5422 9.60814 9.50859 11.6417 7 11.6417V12.8417V14.0417C10.8341 14.0417 13.9422 10.9336 13.9422 7.09955H12.7422ZM7 12.8417V11.6417C6.89465 11.6417 6.7903 11.6382 6.68693 11.6312L6.60598 12.8285L6.52502 14.0257C6.68208 14.0363 6.84044 14.0417 7 14.0417V12.8417ZM6.60598 12.8285L6.39751 11.6467C6.41692 11.6433 6.43555 11.6417 6.45312 11.6417V12.8417V14.0417C6.57494 14.0417 6.69583 14.0311 6.81444 14.0102L6.60598 12.8285ZM6.45312 12.8417V11.6417H2.13281V12.8417V14.0417H6.45312V12.8417ZM2.13281 12.8417V11.6417C2.31228 11.6417 2.45781 11.7873 2.45781 11.9667H1.25781H0.0578125C0.0578125 13.1128 0.986797 14.0417 2.13281 14.0417V12.8417ZM1.25781 11.9667H2.45781V6.93549H1.25781H0.0578125V11.9667H1.25781ZM1.25781 6.93549H2.45781C2.45781 6.94726 2.45712 6.9601 2.45547 6.97384L1.26399 6.83109L0.072513 6.68834C0.0626638 6.77055 0.0578125 6.85306 0.0578125 6.93549H1.25781ZM1.26399 6.83109L2.46272 6.88626C2.5736 4.47727 4.56295 2.55742 7 2.55742V1.35742V0.157422C3.27443 0.157422 0.234827 3.09164 0.0652611 6.77592L1.26399 6.83109ZM7 1.35742V2.55742C7.13013 2.55742 7.25847 2.56282 7.38483 2.57341L7.48502 1.3776L7.58522 0.181792C7.39177 0.165583 7.19657 0.157422 7 0.157422V1.35742ZM7.48502 1.3776L7.38497 2.57342C7.02862 2.54361 6.79423 2.2966 6.70783 2.08129C6.63133 1.89064 6.6435 1.68441 6.74018 1.50884L7.79133 2.08772L8.84247 2.66659C9.09863 2.20145 9.12237 1.65395 8.9352 1.18752C8.73815 0.696443 8.27086 0.239156 7.58507 0.18178L7.48502 1.3776ZM7.79133 2.08772L6.74018 1.50885C6.85825 1.29446 7.10112 1.13534 7.39778 1.1549L7.31883 2.3523L7.23988 3.5497C7.92471 3.59485 8.53672 3.22179 8.84247 2.66659L7.79133 2.08772ZM7.31883 2.3523L7.39813 1.15492C7.26562 1.14614 7.13286 1.14175 7.00007 1.14174L7 2.34174L6.99993 3.54174C7.07987 3.54175 7.15978 3.54439 7.23953 3.54967L7.31883 2.3523ZM7 2.34174V1.14174C3.80308 1.14174 1.19411 3.6598 1.0486 6.8212L2.24733 6.87637L3.44606 6.93155C3.53286 5.04573 5.0913 3.54174 7 3.54174V2.34174ZM2.24733 6.87637L1.0486 6.82113L1.04696 6.85673L2.24569 6.91198L3.44442 6.96722L3.44606 6.93162L2.24733 6.87637ZM2.24569 6.91198L1.05415 6.7697L1.05065 6.79902L2.24219 6.94129L3.43372 7.08356L3.43722 7.05425L2.24569 6.91198ZM2.24219 6.94129H1.04219V11.8574H2.24219H3.44219V6.94129H2.24219ZM2.24219 11.8574V13.0574H6.44443V11.8574V10.6574H2.24219V11.8574ZM6.44443 11.8574L6.6526 13.0392L6.76127 13.02L6.55309 11.8382L6.34492 10.6564L6.23626 10.6756L6.44443 11.8574ZM6.55309 11.8382L6.47196 13.0355L6.5914 13.0436L6.67253 11.8463L6.75366 10.6491L6.63422 10.641L6.55309 11.8382ZM6.67253 11.8463L6.59134 13.0436C6.72651 13.0527 6.8628 13.0574 7 13.0574V11.8574V10.6574C6.91681 10.6574 6.83468 10.6546 6.75372 10.6491L6.67253 11.8463ZM7 11.8574V13.0574C10.2904 13.0574 12.9578 10.39 12.9578 7.09955H11.7578H10.5578C10.5578 9.06449 8.96494 10.6574 7 10.6574V11.8574ZM11.7578 7.09955H12.9578C12.9578 7.42861 12.76 7.69904 12.4927 7.81564L12.0129 6.7157L11.5332 5.61576C10.9601 5.8657 10.5578 6.43701 10.5578 7.09955H11.7578ZM12.0129 6.7157L12.4902 7.81672C12.5124 7.8071 12.5329 7.79793 12.5503 7.79006L12.0559 6.69662L11.5616 5.60317C11.5504 5.60821 11.5423 5.61184 11.5357 5.61469L12.0129 6.7157Z" fill="white" mask="url(#path-2-inside-1_1272_6024)"/>
<mask id="path-4-inside-2_1272_6024" fill="white">
<path d="M7 4.69336C6.86946 4.69336 6.74427 4.74521 6.65197 4.83752C6.55967 4.92982 6.50781 5.05501 6.50781 5.18555V9.61523C6.50781 9.74577 6.55967 9.87096 6.65197 9.96326C6.74427 10.0556 6.86946 10.1074 7 10.1074C7.13054 10.1074 7.25573 10.0556 7.34803 9.96326C7.44033 9.87096 7.49219 9.74577 7.49219 9.61523V5.18555C7.49219 5.05501 7.44033 4.92982 7.34803 4.83752C7.25573 4.74521 7.13054 4.69336 7 4.69336ZM4.32031 6.22461C4.32031 6.09407 4.37217 5.96888 4.46447 5.87658C4.55677 5.78428 4.68196 5.73242 4.8125 5.73242C4.94304 5.73242 5.06823 5.78428 5.16053 5.87658C5.25283 5.96888 5.30469 6.09407 5.30469 6.22461V8.52148C5.30469 8.65202 5.25283 8.77721 5.16053 8.86951C5.06823 8.96182 4.94304 9.01367 4.8125 9.01367C4.68196 9.01367 4.55677 8.96182 4.46447 8.86951C4.37217 8.77721 4.32031 8.65202 4.32031 8.52148V6.22461ZM9.1875 5.73242C9.05696 5.73242 8.93177 5.78428 8.83947 5.87658C8.74717 5.96888 8.69531 6.09407 8.69531 6.22461V8.52148C8.69531 8.65202 8.74717 8.77721 8.83947 8.86951C8.93177 8.96182 9.05696 9.01367 9.1875 9.01367C9.31804 9.01367 9.44323 8.96182 9.53553 8.86951C9.62783 8.77721 9.67969 8.65202 9.67969 8.52148V6.22461C9.67969 6.09407 9.62783 5.96888 9.53553 5.87658C9.44323 5.78428 9.31804 5.73242 9.1875 5.73242Z"/>
</mask>
<path d="M7 4.69336C6.86946 4.69336 6.74427 4.74521 6.65197 4.83752C6.55967 4.92982 6.50781 5.05501 6.50781 5.18555V9.61523C6.50781 9.74577 6.55967 9.87096 6.65197 9.96326C6.74427 10.0556 6.86946 10.1074 7 10.1074C7.13054 10.1074 7.25573 10.0556 7.34803 9.96326C7.44033 9.87096 7.49219 9.74577 7.49219 9.61523V5.18555C7.49219 5.05501 7.44033 4.92982 7.34803 4.83752C7.25573 4.74521 7.13054 4.69336 7 4.69336ZM4.32031 6.22461C4.32031 6.09407 4.37217 5.96888 4.46447 5.87658C4.55677 5.78428 4.68196 5.73242 4.8125 5.73242C4.94304 5.73242 5.06823 5.78428 5.16053 5.87658C5.25283 5.96888 5.30469 6.09407 5.30469 6.22461V8.52148C5.30469 8.65202 5.25283 8.77721 5.16053 8.86951C5.06823 8.96182 4.94304 9.01367 4.8125 9.01367C4.68196 9.01367 4.55677 8.96182 4.46447 8.86951C4.37217 8.77721 4.32031 8.65202 4.32031 8.52148V6.22461ZM9.1875 5.73242C9.05696 5.73242 8.93177 5.78428 8.83947 5.87658C8.74717 5.96888 8.69531 6.09407 8.69531 6.22461V8.52148C8.69531 8.65202 8.74717 8.77721 8.83947 8.86951C8.93177 8.96182 9.05696 9.01367 9.1875 9.01367C9.31804 9.01367 9.44323 8.96182 9.53553 8.86951C9.62783 8.77721 9.67969 8.65202 9.67969 8.52148V6.22461C9.67969 6.09407 9.62783 5.96888 9.53553 5.87658C9.44323 5.78428 9.31804 5.73242 9.1875 5.73242Z" fill="white"/>
<path d="M4.32031 6.22461H5.52031H4.32031ZM5.30469 8.52148H6.50469H5.30469ZM8.69531 6.22461H7.49531H8.69531ZM9.67969 8.52148H10.8797H9.67969ZM9.67969 6.22461H10.8797H9.67969ZM7 4.69336V3.49336C6.5512 3.49336 6.12079 3.67164 5.80344 3.98899L6.65197 4.83752L7.5005 5.68605C7.36776 5.81879 7.18772 5.89336 7 5.89336V4.69336ZM6.65197 4.83752L5.80344 3.98899C5.4861 4.30634 5.30781 4.73675 5.30781 5.18555H6.50781H7.70781C7.70781 5.37327 7.63324 5.55331 7.5005 5.68605L6.65197 4.83752ZM6.50781 5.18555H5.30781V9.61523H6.50781H7.70781V5.18555H6.50781ZM6.50781 9.61523H5.30781C5.30781 10.064 5.4861 10.4944 5.80344 10.8118L6.65197 9.96326L7.5005 9.11474C7.63324 9.24747 7.70781 9.42751 7.70781 9.61523H6.50781ZM6.65197 9.96326L5.80344 10.8118C6.12079 11.1291 6.5512 11.3074 7 11.3074V10.1074V8.90742C7.18773 8.90742 7.36776 8.982 7.5005 9.11474L6.65197 9.96326ZM7 10.1074V11.3074C7.4488 11.3074 7.87921 11.1291 8.19656 10.8118L7.34803 9.96326L6.4995 9.11474C6.63224 8.982 6.81227 8.90742 7 8.90742V10.1074ZM7.34803 9.96326L8.19656 10.8118C8.51391 10.4944 8.69219 10.064 8.69219 9.61523H7.49219H6.29219C6.29219 9.42751 6.36676 9.24748 6.4995 9.11474L7.34803 9.96326ZM7.49219 9.61523H8.69219V5.18555H7.49219H6.29219V9.61523H7.49219ZM7.49219 5.18555H8.69219C8.69219 4.73675 8.51391 4.30634 8.19656 3.98899L7.34803 4.83752L6.4995 5.68605C6.36676 5.5533 6.29219 5.37327 6.29219 5.18555H7.49219ZM7.34803 4.83752L8.19656 3.98899C7.87921 3.67164 7.4488 3.49336 7 3.49336V4.69336V5.89336C6.81228 5.89336 6.63224 5.81879 6.4995 5.68605L7.34803 4.83752ZM4.32031 6.22461H5.52031C5.52031 6.41233 5.44574 6.59237 5.313 6.72511L4.46447 5.87658L3.61594 5.02805C3.2986 5.3454 3.12031 5.77581 3.12031 6.22461H4.32031ZM4.46447 5.87658L5.313 6.72511C5.18026 6.85785 5.00022 6.93242 4.8125 6.93242V5.73242V4.53242C4.3637 4.53242 3.93329 4.71071 3.61594 5.02805L4.46447 5.87658ZM4.8125 5.73242V6.93242C4.62478 6.93242 4.44474 6.85785 4.312 6.72511L5.16053 5.87658L6.00906 5.02805C5.69171 4.71071 5.2613 4.53242 4.8125 4.53242V5.73242ZM5.16053 5.87658L4.312 6.72511C4.17926 6.59237 4.10469 6.41233 4.10469 6.22461H5.30469H6.50469C6.50469 5.77581 6.3264 5.3454 6.00906 5.02805L5.16053 5.87658ZM5.30469 6.22461H4.10469V8.52148H5.30469H6.50469V6.22461H5.30469ZM5.30469 8.52148H4.10469C4.10469 8.33376 4.17926 8.15372 4.312 8.02099L5.16053 8.86951L6.00906 9.71804C6.3264 9.4007 6.50469 8.97028 6.50469 8.52148H5.30469ZM5.16053 8.86951L4.312 8.02099C4.44474 7.88825 4.62477 7.81367 4.8125 7.81367V9.01367V10.2137C5.2613 10.2137 5.69171 10.0354 6.00906 9.71804L5.16053 8.86951ZM4.8125 9.01367V7.81367C5.00023 7.81367 5.18026 7.88825 5.313 8.02099L4.46447 8.86951L3.61594 9.71804C3.93329 10.0354 4.3637 10.2137 4.8125 10.2137V9.01367ZM4.46447 8.86951L5.313 8.02099C5.44574 8.15372 5.52031 8.33376 5.52031 8.52148H4.32031H3.12031C3.12031 8.97028 3.2986 9.4007 3.61594 9.71804L4.46447 8.86951ZM4.32031 8.52148H5.52031V6.22461H4.32031H3.12031V8.52148H4.32031ZM9.1875 5.73242V4.53242C8.7387 4.53242 8.30829 4.7107 7.99094 5.02805L8.83947 5.87658L9.688 6.72511C9.55526 6.85785 9.37522 6.93242 9.1875 6.93242V5.73242ZM8.83947 5.87658L7.99094 5.02805C7.67359 5.3454 7.49531 5.77582 7.49531 6.22461H8.69531H9.89531C9.89531 6.41233 9.82074 6.59237 9.688 6.72511L8.83947 5.87658ZM8.69531 6.22461H7.49531V8.52148H8.69531H9.89531V6.22461H8.69531ZM8.69531 8.52148H7.49531C7.49531 8.97028 7.67359 9.40069 7.99094 9.71804L8.83947 8.86951L9.688 8.02099C9.82074 8.15373 9.89531 8.33376 9.89531 8.52148H8.69531ZM8.83947 8.86951L7.99094 9.71804C8.30829 10.0354 8.7387 10.2137 9.1875 10.2137V9.01367V7.81367C9.37523 7.81367 9.55526 7.88825 9.688 8.02099L8.83947 8.86951ZM9.1875 9.01367V10.2137C9.6363 10.2137 10.0667 10.0354 10.3841 9.71804L9.53553 8.86951L8.687 8.02099C8.81974 7.88825 8.99977 7.81367 9.1875 7.81367V9.01367ZM9.53553 8.86951L10.3841 9.71804C10.7014 9.40069 10.8797 8.97028 10.8797 8.52148H9.67969H8.47969C8.47969 8.33376 8.55426 8.15373 8.687 8.02099L9.53553 8.86951ZM9.67969 8.52148H10.8797V6.22461H9.67969H8.47969V8.52148H9.67969ZM9.67969 6.22461H10.8797C10.8797 5.77582 10.7014 5.3454 10.3841 5.02805L9.53553 5.87658L8.687 6.72511C8.55426 6.59237 8.47969 6.41233 8.47969 6.22461H9.67969ZM9.53553 5.87658L10.3841 5.02805C10.0667 4.7107 9.6363 4.53242 9.1875 4.53242V5.73242V6.93242C8.99978 6.93242 8.81974 6.85785 8.687 6.72511L9.53553 5.87658Z" fill="white" mask="url(#path-4-inside-2_1272_6024)"/>
</svg>
