<svg xmlns="http://www.w3.org/2000/svg" xmlns:xlink="http://www.w3.org/1999/xlink" fill="none" version="1.1" width="16" height="16" viewBox="0 0 16 16"><g><g style="opacity:0;"><rect x="0" y="0" width="16" height="16" rx="0" fill="#D8D8D8" fill-opacity="1"/></g><g><path d="M0,2L0,7Q0,7.09825,0.00963055,7.19603Q0.0192611,7.29381,0.0384294,7.39018Q0.0575978,7.48655,0.0861193,7.58057Q0.114641,7.67459,0.152241,7.76537Q0.189841,7.85614,0.236157,7.94279Q0.282474,8.02944,0.337061,8.11114Q0.391648,8.19283,0.453979,8.26879Q0.516311,8.34474,0.585786,8.41421Q0.655262,8.48369,0.731213,8.54602Q0.807164,8.60835,0.888859,8.66294Q0.970554,8.71753,1.05721,8.76384Q1.14386,8.81016,1.23463,8.84776Q1.32541,8.88536,1.41943,8.91388Q1.51345,8.9424,1.60982,8.96157Q1.70619,8.98074,1.80397,8.99037Q1.90175,9,2,9L4,9L4,8.99828Q4.0705,8.99349,4.13887,8.97563Q4.20723,8.95776,4.27106,8.92743Q4.33488,8.89711,4.39192,8.8554Q4.44896,8.81369,4.49721,8.76206Q4.54545,8.71043,4.58321,8.6507Q4.62096,8.59097,4.64689,8.52523Q4.67282,8.4595,4.68602,8.39008Q4.69922,8.32066,4.69922,8.25Q4.69922,8.17934,4.68602,8.10992Q4.67282,8.0405,4.64689,7.97477Q4.62096,7.90903,4.58321,7.8493Q4.54545,7.78957,4.49721,7.73794Q4.44896,7.68631,4.39192,7.6446Q4.33488,7.60289,4.27106,7.57256Q4.20723,7.54224,4.13887,7.52437Q4.0705,7.50651,4,7.50172L4,7.5L2,7.5Q1.95075,7.5,1.90245,7.49039Q1.85416,7.48078,1.80866,7.46194Q1.76316,7.44309,1.72221,7.41573Q1.68127,7.38837,1.64645,7.35355Q1.61162,7.31873,1.58426,7.27778Q1.55691,7.23684,1.53806,7.19134Q1.51921,7.14584,1.50961,7.09754Q1.5,7.04925,1.5,7L1.5,2Q1.5,1.95075,1.50961,1.90245Q1.51921,1.85416,1.53806,1.80866Q1.55691,1.76316,1.58426,1.72221Q1.61162,1.68127,1.64645,1.64645Q1.68127,1.61162,1.72221,1.58426Q1.76316,1.55691,1.80866,1.53806Q1.85416,1.51921,1.90245,1.50961Q1.95075,1.5,2,1.5L9,1.5Q9.04924,1.5,9.09754,1.50961Q9.14584,1.51921,9.19134,1.53806Q9.23684,1.55691,9.27778,1.58426Q9.31873,1.61162,9.35355,1.64645Q9.38837,1.68127,9.41573,1.72221Q9.44309,1.76316,9.46194,1.80866Q9.48078,1.85416,9.49039,1.90245Q9.5,1.95075,9.5,2L9.5,3L9.50166,3Q9.50635,3.07057,9.52416,3.13901Q9.54196,3.20746,9.57225,3.27137Q9.60254,3.33528,9.64424,3.39241Q9.68594,3.44953,9.73758,3.49785Q9.78922,3.54617,9.84899,3.58399Q9.90876,3.6218,9.97454,3.64778Q10.0403,3.67375,10.1098,3.68697Q10.1793,3.7002,10.25,3.7002Q10.3207,3.7002,10.3902,3.68697Q10.4597,3.67375,10.5255,3.64778Q10.5912,3.6218,10.651,3.58399Q10.7108,3.54617,10.7624,3.49785Q10.8141,3.44953,10.8558,3.39241Q10.8975,3.33528,10.9278,3.27137Q10.958,3.20746,10.9758,3.13901Q10.9936,3.07057,10.9983,3L11,3L11,2Q11,1.90175,10.9904,1.80397Q10.9807,1.70619,10.9616,1.60982Q10.9424,1.51345,10.9139,1.41943Q10.8854,1.32541,10.8478,1.23463Q10.8102,1.14386,10.7638,1.05721Q10.7175,0.970554,10.6629,0.888859Q10.6084,0.807164,10.546,0.731213Q10.4837,0.655262,10.4142,0.585786Q10.3447,0.516311,10.2688,0.453979Q10.1928,0.391648,10.1111,0.337061Q10.0294,0.282474,9.94279,0.236157Q9.85614,0.189841,9.76537,0.152241Q9.67459,0.114641,9.58057,0.0861193Q9.48655,0.0575978,9.39018,0.0384294Q9.29382,0.0192611,9.19603,0.00963055Q9.09825,0,9,0L2,0Q1.90175,0,1.80397,0.00963055Q1.70619,0.0192611,1.60982,0.0384294Q1.51345,0.0575978,1.41943,0.0861193Q1.32541,0.114641,1.23463,0.152241Q1.14386,0.189841,1.05721,0.236157Q0.970554,0.282474,0.888859,0.337061Q0.807164,0.391648,0.731213,0.453979Q0.655262,0.516311,0.585786,0.585786Q0.516311,0.655262,0.453979,0.731213Q0.391648,0.807164,0.337061,0.888859Q0.282474,0.970554,0.236157,1.05721Q0.189841,1.14386,0.152241,1.23463Q0.114641,1.32541,0.0861193,1.41943Q0.0575978,1.51345,0.0384294,1.60982Q0.0192611,1.70619,0.00963055,1.80397Q0,1.90175,0,2ZM3.75,2.5Q3.67613,2.5,3.60368,2.51441Q3.53123,2.52882,3.46299,2.55709Q3.39474,2.58536,3.33332,2.6264Q3.2719,2.66744,3.21967,2.71967Q3.16744,2.7719,3.1264,2.83332Q3.08536,2.89474,3.05709,2.96299Q3.02882,3.03123,3.01441,3.10368Q3,3.17613,3,3.25Q3,3.32387,3.01441,3.39632Q3.02882,3.46877,3.05709,3.53701Q3.08536,3.60526,3.1264,3.66668Q3.16744,3.7281,3.21967,3.78033Q3.2719,3.83256,3.33332,3.8736Q3.39474,3.91464,3.46299,3.94291Q3.53123,3.97118,3.60368,3.98559Q3.67613,4,3.75,4L7.25,4Q7.32387,4,7.39632,3.98559Q7.46877,3.97118,7.53701,3.94291Q7.60526,3.91464,7.66668,3.8736Q7.7281,3.83256,7.78033,3.78033Q7.83256,3.7281,7.8736,3.66668Q7.91464,3.60526,7.94291,3.53701Q7.97118,3.46877,7.98559,3.39632Q8,3.32387,8,3.25Q8,3.17613,7.98559,3.10368Q7.97118,3.03123,7.94291,2.96299Q7.91464,2.89474,7.8736,2.83332Q7.83256,2.7719,7.78033,2.71967Q7.7281,2.66744,7.66668,2.6264Q7.60526,2.58536,7.53701,2.55709Q7.46877,2.52882,7.39632,2.51441Q7.32387,2.5,7.25,2.5L3.75,2.5ZM3,5.75Q3,5.67613,3.01441,5.60368Q3.02882,5.53123,3.05709,5.46299Q3.08536,5.39474,3.1264,5.33332Q3.16744,5.2719,3.21967,5.21967Q3.2719,5.16744,3.33332,5.1264Q3.39474,5.08536,3.46299,5.05709Q3.53123,5.02882,3.60368,5.01441Q3.67613,5,3.75,5L7.25,5Q7.32387,5,7.39632,5.01441Q7.46877,5.02882,7.53701,5.05709Q7.60526,5.08536,7.66668,5.1264Q7.7281,5.16744,7.78033,5.21967Q7.83256,5.2719,7.8736,5.33332Q7.91464,5.39474,7.94291,5.46299Q7.97118,5.53123,7.98559,5.60368Q8,5.67613,8,5.75Q8,5.82387,7.98559,5.89632Q7.97118,5.96877,7.94291,6.03701Q7.91464,6.10526,7.8736,6.16668Q7.83256,6.2281,7.78033,6.28033Q7.7281,6.33256,7.66668,6.3736Q7.60526,6.41464,7.53701,6.44291Q7.46877,6.47118,7.39632,6.48559Q7.32387,6.5,7.25,6.5L3.75,6.5Q3.67613,6.5,3.60368,6.48559Q3.53123,6.47118,3.46299,6.44291Q3.39474,6.41464,3.33332,6.3736Q3.2719,6.33256,3.21967,6.28033Q3.16744,6.2281,3.1264,6.16668Q3.08536,6.10526,3.05709,6.03701Q3.02882,5.96877,3.01441,5.89632Q3,5.82387,3,5.75ZM11.5,6Q11.4017,6,11.304,6.00963Q11.2062,6.01926,11.1098,6.03843Q11.0135,6.0576,10.9194,6.08612Q10.8254,6.11464,10.7346,6.15224Q10.6439,6.18984,10.5572,6.23616Q10.4706,6.28247,10.3889,6.33706Q10.3072,6.39165,10.2312,6.45398Q10.1553,6.51631,10.0858,6.58579Q10.0163,6.65526,9.95398,6.73121Q9.89165,6.80716,9.83706,6.88886Q9.78247,6.97055,9.73616,7.05721Q9.68984,7.14386,9.65224,7.23463Q9.61464,7.32541,9.58612,7.41943Q9.5576,7.51345,9.53843,7.60982Q9.51926,7.70619,9.50963,7.80397Q9.5,7.90175,9.5,8Q9.5,8.09825,9.50963,8.19603Q9.51926,8.29381,9.53843,8.39018Q9.5576,8.48655,9.58612,8.58057Q9.61464,8.67459,9.65224,8.76537Q9.68984,8.85614,9.73616,8.94279Q9.78247,9.02945,9.83706,9.11114Q9.89165,9.19284,9.95398,9.26879Q10.0163,9.34474,10.0858,9.41421Q10.1553,9.48369,10.2312,9.54602Q10.3072,9.60835,10.3889,9.66294Q10.4706,9.71752,10.5572,9.76384Q10.6439,9.81016,10.7346,9.84776Q10.8254,9.88536,10.9194,9.91388Q11.0135,9.9424,11.1098,9.96157Q11.2062,9.98074,11.304,9.99037Q11.4017,10,11.5,10Q11.5983,10,11.696,9.99037Q11.7938,9.98074,11.8902,9.96157Q11.9865,9.9424,12.0806,9.91388Q12.1746,9.88536,12.2654,9.84776Q12.3561,9.81016,12.4428,9.76384Q12.5294,9.71752,12.6111,9.66294Q12.6928,9.60835,12.7688,9.54602Q12.8447,9.48369,12.9142,9.41421Q12.9837,9.34474,13.046,9.26879Q13.1084,9.19284,13.1629,9.11114Q13.2175,9.02945,13.2638,8.94279Q13.3102,8.85614,13.3478,8.76537Q13.3854,8.67459,13.4139,8.58057Q13.4424,8.48655,13.4616,8.39018Q13.4807,8.29381,13.4904,8.19603Q13.5,8.09825,13.5,8Q13.5,7.90175,13.4904,7.80397Q13.4807,7.70619,13.4616,7.60982Q13.4424,7.51345,13.4139,7.41943Q13.3854,7.32541,13.3478,7.23463Q13.3102,7.14386,13.2638,7.05721Q13.2175,6.97055,13.1629,6.88886Q13.1084,6.80716,13.046,6.73121Q12.9837,6.65526,12.9142,6.58579Q12.8447,6.51631,12.7688,6.45398Q12.6928,6.39165,12.6111,6.33706Q12.5294,6.28247,12.4428,6.23616Q12.3561,6.18984,12.2654,6.15224Q12.1746,6.11464,12.0806,6.08612Q11.9865,6.0576,11.8902,6.03843Q11.7938,6.01926,11.696,6.00963Q11.5983,6,11.5,6ZM6,9.9502Q6,9.87633,6.01441,9.80388Q6.02882,9.73143,6.05709,9.66318Q6.08536,9.59494,6.1264,9.53352Q6.16744,9.4721,6.21967,9.41986Q6.2719,9.36763,6.33332,9.32659Q6.39474,9.28555,6.46299,9.25729Q6.53123,9.22902,6.60368,9.21461Q6.67613,9.2002,6.75,9.2002Q6.82387,9.2002,6.89632,9.21461Q6.96877,9.22902,7.03701,9.25729Q7.10526,9.28555,7.16668,9.32659Q7.2281,9.36763,7.28033,9.41986Q7.33256,9.4721,7.3736,9.53352Q7.41464,9.59494,7.44291,9.66318Q7.47118,9.73143,7.48559,9.80388Q7.5,9.87633,7.5,9.9502Q7.5,9.97513,7.49834,10L7.5,10L7.5,11Q7.5,11.0492,7.50961,11.0975Q7.51921,11.1458,7.53806,11.1913Q7.5569,11.2368,7.58426,11.2778Q7.61162,11.3187,7.64645,11.3536Q7.68127,11.3884,7.72221,11.4157Q7.76316,11.4431,7.80866,11.4619Q7.85415,11.4808,7.90245,11.4904Q7.95075,11.5,8,11.5L14,11.5Q14.0983,11.5,14.196,11.5096Q14.2938,11.5193,14.3902,11.5384Q14.4865,11.5576,14.5806,11.5861Q14.6746,11.6146,14.7654,11.6522Q14.8561,11.6898,14.9428,11.7362Q15.0294,11.7825,15.1111,11.8371Q15.1928,11.8916,15.2688,11.954Q15.3447,12.0163,15.4142,12.0858Q15.4837,12.1553,15.546,12.2312Q15.6084,12.3072,15.6629,12.3889Q15.7175,12.4706,15.7638,12.5572Q15.8102,12.6439,15.8478,12.7346Q15.8854,12.8254,15.9139,12.9194Q15.9424,13.0135,15.9616,13.1098Q15.9807,13.2062,15.9904,13.304Q16,13.4017,16,13.5L16,14.5L15.9983,14.5Q16,14.5249,16,14.5498Q16,14.6237,15.9856,14.6961Q15.9712,14.7686,15.9429,14.8368Q15.9146,14.9051,15.8736,14.9665Q15.8326,15.0279,15.7803,15.0801Q15.7281,15.1324,15.6667,15.1734Q15.6053,15.2144,15.537,15.2427Q15.4688,15.271,15.3963,15.2854Q15.3239,15.2998,15.25,15.2998Q15.1761,15.2998,15.1037,15.2854Q15.0312,15.271,14.963,15.2427Q14.8947,15.2144,14.8333,15.1734Q14.7719,15.1324,14.7197,15.0801Q14.6674,15.0279,14.6264,14.9665Q14.5854,14.9051,14.5571,14.8368Q14.5288,14.7686,14.5144,14.6961Q14.5,14.6237,14.5,14.5498Q14.5,14.5249,14.5017,14.5L14.5,14.5L14.5,13.5Q14.5,13.4508,14.4904,13.4025Q14.4808,13.3542,14.4619,13.3087Q14.4431,13.2632,14.4157,13.2222Q14.3884,13.1813,14.3536,13.1464Q14.3187,13.1116,14.2778,13.0843Q14.2368,13.0569,14.1913,13.0381Q14.1458,13.0192,14.0975,13.0096Q14.0492,13,14,13L8,13Q7.90175,13,7.80397,12.9904Q7.70619,12.9807,7.60982,12.9616Q7.51345,12.9424,7.41943,12.9139Q7.32541,12.8854,7.23463,12.8478Q7.14386,12.8102,7.05721,12.7638Q6.97055,12.7175,6.88886,12.6629Q6.80716,12.6084,6.73121,12.546Q6.65526,12.4837,6.58579,12.4142Q6.51631,12.3447,6.45398,12.2688Q6.39165,12.1928,6.33706,12.1111Q6.28247,12.0294,6.23616,11.9428Q6.18984,11.8561,6.15224,11.7654Q6.11464,11.6746,6.08612,11.5806Q6.0576,11.4865,6.03843,11.3902Q6.01926,11.2938,6.00963,11.196Q6,11.0983,6,11L6,10L6.00166,10Q6,9.97513,6,9.9502Z" fill-rule="evenodd" fill="#FFFFFF" fill-opacity="1"/></g></g></svg>
