<svg xmlns="http://www.w3.org/2000/svg" xmlns:xlink="http://www.w3.org/1999/xlink" fill="none" version="1.1" width="20.000028610229492" height="15.244422912597656" viewBox="0 0 20.000028610229492 15.244422912597656"><g><path d="M16.9308,1.26372C15.6342,0.66852,14.2658,0.244088,12.8599,0.00105103C12.8337,-0.00383536,12.8074,0.00862857,12.7945,0.0319678C12.6187,0.344718,12.4239,0.752634,12.2876,1.07322C10.7503,0.843051,9.22092,0.843051,7.71525,1.07322C7.57892,0.745468,7.37709,0.344718,7.2005,0.0319678C7.18712,0.00921071,7.16116,-0.00302454,7.13509,0.00113447C5.72907,0.243607,4.36058,0.668003,3.06409,1.26363C3.053,1.26837,3.04365,1.27644,3.03734,1.28672C0.444503,5.16038,-0.26583,8.9388,0.0826698,12.6704C0.0846601,12.6888,0.0940395,12.7057,0.10867,12.7171C1.81934,13.9735,3.47642,14.7361,5.10275,15.2416C5.12865,15.2494,5.15662,15.2402,5.17292,15.2186C5.55759,14.6933,5.9005,14.1393,6.19459,13.5568C6.21172,13.523,6.19551,13.4818,6.15992,13.4687C5.61592,13.2624,5.098,13.0108,4.59975,12.7251C4.56039,12.702,4.55707,12.6463,4.59342,12.6187C4.69825,12.5401,4.80317,12.4585,4.90325,12.3759C4.9214,12.3609,4.94645,12.3575,4.96792,12.3671C8.24109,13.8616,11.7846,13.8616,15.0191,12.3671C15.0406,12.3569,15.0661,12.36,15.0845,12.3751C15.1847,12.4576,15.2895,12.5401,15.3952,12.6187C15.4316,12.6461,15.4287,12.7016,15.3897,12.7251C14.8912,13.0162,14.3691,13.2647,13.8288,13.4679C13.7933,13.4815,13.7775,13.523,13.7949,13.5568C14.0953,14.1385,14.4382,14.6925,14.8158,15.2178C14.8316,15.24,14.8598,15.2496,14.8859,15.2416C16.5201,14.7361,18.1772,13.9734,19.8878,12.7171C19.9027,12.7063,19.9122,12.6895,19.9139,12.6711C20.3309,8.35697,19.2154,4.60955,16.9568,1.28747C16.9513,1.27668,16.9421,1.26822,16.9308,1.26372ZM6.68334,10.3982C5.69792,10.3982,4.88592,9.49347,4.88592,8.38238C4.88592,7.27139,5.68217,6.36663,6.68342,6.36663C7.69242,6.36663,8.4965,7.2793,8.48075,8.38247C8.48075,9.49347,7.6845,10.3982,6.68334,10.3982ZM13.329,10.3982C12.3436,10.3982,11.5316,9.49347,11.5316,8.38238C11.5316,7.27139,12.3278,6.36663,13.329,6.36663C14.338,6.36663,15.1421,7.2793,15.1263,8.38247C15.1263,9.49347,14.338,10.3982,13.329,10.3982Z" fill="#5865F2" fill-opacity="1" style="mix-blend-mode:passthrough"/></g></svg>
