<svg xmlns="http://www.w3.org/2000/svg" xmlns:xlink="http://www.w3.org/1999/xlink" fill="none" version="1.1" width="20.00010108947754" height="16.238510131835938" viewBox="0 0 20.00010108947754 16.238510131835938"><g><path d="M8.415,15.0552C5.10083,15.381,2.23667,13.8835,2.02167,11.7052C1.80583,9.53101,4.32083,7.49934,7.63833,7.17101C10.9542,6.84268,13.8158,8.34101,14.0308,10.5193C14.2467,12.686,11.7317,14.7268,8.41667,15.0518L8.415,15.0552ZM7.54167,12.4685C7.22167,12.9818,6.535,13.2052,6.0175,12.9702C5.5075,12.7377,5.35667,12.1443,5.67917,11.6427C5.995,11.1468,6.65917,10.9252,7.17333,11.1418C7.69167,11.361,7.85667,11.9518,7.54167,12.4685ZM8.6,11.1127C8.4825,11.3102,8.22583,11.4068,8.02583,11.3235C7.82917,11.2485,7.765,11.0227,7.87833,10.8352C7.99333,10.646,8.24167,10.5468,8.43833,10.6352C8.6375,10.7102,8.70083,10.9352,8.58833,11.136L8.6,11.1127ZM8.74667,8.84684C7.16917,8.43601,5.38583,9.22184,4.69917,10.6118C4.0025,12.0318,4.6775,13.6043,6.27083,14.1202C7.92333,14.6535,9.86917,13.836,10.5475,12.3043C11.2142,10.8102,10.38,9.26934,8.74667,8.84684ZM15.0492,7.82684C14.7608,7.73934,14.5742,7.67684,14.7117,7.31434C15.0242,6.50018,15.0617,5.81101,14.7117,5.31101C14.0608,4.38434,12.2825,4.43351,10.2417,5.28601Q9.60333,5.56184,9.76583,5.06018C10.0792,4.04601,10.0283,3.20684,9.54083,2.71934C8.42583,1.60518,5.48333,2.75684,2.9675,5.28601C1.09083,7.17768,0,9.18018,0,10.9093C0,14.2268,4.24917,16.2385,8.405,16.2385C13.8517,16.2385,17.4783,13.071,17.4783,10.5552C17.4783,9.03684,16.1892,8.17684,15.0492,7.81851L15.0492,7.82684ZM16.6392,3.58351C16.0008,2.87018,15.0492,2.59434,14.1725,2.78184C13.8092,2.85684,13.5842,3.20768,13.6592,3.55851C13.7342,3.90851,14.085,4.13434,14.4358,4.06018C14.8617,3.97268,15.325,4.09684,15.6375,4.44768C15.9508,4.79851,16.0258,5.26185,15.9008,5.67518C15.7875,6.01351,15.975,6.38851,16.3258,6.50184C16.6633,6.60101,17.04,6.41435,17.1525,6.07518C17.4275,5.22435,17.2525,4.26018,16.6142,3.54601L16.6392,3.58351ZM18.6542,1.75434C17.3408,0.290177,15.4,-0.261489,13.6092,0.114344C13.1958,0.201011,12.9325,0.603511,13.0208,1.01518C13.1075,1.42851,13.5092,1.69268,13.9225,1.60434C15.1992,1.32851,16.5767,1.72934,17.5025,2.75684C18.4292,3.79518,18.6933,5.20934,18.2917,6.43684C18.1542,6.83684,18.38,7.27601,18.78,7.40101C19.1792,7.53851,19.6058,7.31434,19.7442,6.91268C20.3067,5.17268,19.945,3.18101,18.6292,1.71684L18.6542,1.75434Z" fill="#E6162D" fill-opacity="1" style="mix-blend-mode:passthrough"/></g></svg>
