<svg xmlns="http://www.w3.org/2000/svg" xmlns:xlink="http://www.w3.org/1999/xlink" fill="none" version="1.1" width="140.8125" height="30" viewBox="0 0 140.8125 30"><g><g><path d="M36.749156640625,4.197119761581421Q34.664306640625,6.340089761581421,34.664306640625,9.374999761581421C34.664306640625,9.406519761581421,34.665371070625,9.437779761581421,34.667464450625,9.468749761581421C34.665371070625,9.499709761581421,34.664306640625,9.53097976158142,34.664306640625,9.562499761581421L34.664306640625,26.43749976158142C34.664306640625,27.162399761581423,35.227198640625,27.74999976158142,35.921556640625,27.74999976158142C36.615926640625,27.74999976158142,37.178816640625,27.162399761581423,37.178816640625,26.43749976158142L37.178816640625,20.99999976158142L46.338906640625,20.99999976158142L46.338906640625,26.43749976158142C46.338906640625,27.162399761581423,46.901806640625,27.74999976158142,47.596106640625,27.74999976158142C48.290506640625,27.74999976158142,48.853406640624996,27.162399761581423,48.853406640624996,26.43749976158142L48.853406640624996,9.562499761581421C48.853406640624996,9.530839761581422,48.852306640625,9.49943976158142,48.850206640625004,9.468339761581422C48.852306640625,9.43750976158142,48.853306640625,9.406379761581421,48.853306640625,9.374999761581421Q48.853306640625,6.340089761581421,46.768506640625,4.197109761581421Q44.691706640625,2.062499761581421,41.758816640625,2.062499761581421Q38.825876640625,2.062499761581421,36.749156640625,4.197119761581421ZM53.702806640625,2.249999761581421C53.008406640625,2.249999761581421,52.445506640625,2.837625761581421,52.445506640625,3.562499761581421C52.445506640625,4.287369761581421,53.008406640625,4.874999761581421,53.702806640625,4.874999761581421L54.421106640625,4.874999761581421L54.421106640625,24.93749976158142L53.702806640625,24.93749976158142C53.008406640625,24.93749976158142,52.445506640625,25.52509976158142,52.445506640625,26.24999976158142C52.445506640625,26.974899761581423,53.008406640625,27.56249976158142,53.702806640625,27.56249976158142L57.474606640625,27.56249976158142C58.168906640624996,27.56249976158142,58.731806640624995,26.974899761581423,58.731806640624995,26.24999976158142C58.731806640624995,25.52509976158142,58.168906640624996,24.93749976158142,57.474606640625,24.93749976158142L56.935606640625,24.93749976158142L56.935606640625,4.874999761581421L57.474606640625,4.874999761581421C58.168906640624996,4.874999761581421,58.731806640624995,4.287369761581421,58.731806640624995,3.562499761581421C58.731806640624995,2.837625761581421,58.168906640624996,2.249999761581421,57.474606640625,2.249999761581421L53.702806640625,2.249999761581421ZM73.792606640625,23.45909976158142L73.791806640625,23.45859976158142C73.586506640625,23.31749976158142,73.34610664062501,23.24229976158142,73.10040664062501,23.24229976158142C72.40600664062501,23.24229976158142,71.843106640625,23.82989976158142,71.843106640625,24.55479976158142C71.843106640625,24.996299761581422,72.05580664062501,25.40819976158142,72.409006640625,25.65099976158142L73.277806640625,26.24819976158142Q75.462706640625,27.74999976158142,78.078506640625,27.74999976158142L78.628406640625,27.74999976158142Q81.397506640625,27.74999976158142,83.355606640625,25.70589976158142Q85.313706640625,23.66179976158142,85.313706640625,20.770899761581422Q85.313706640625,18.04659976158142,83.545706640625,16.04269976158142Q81.777706640625,14.038799761581421,79.176806640625,13.815399761581421L78.260406640625,13.73659976158142Q76.60640664062501,13.594499761581421,75.482006640625,12.32019976158142Q74.357606640625,11.045829761581421,74.357606640625,9.313289761581421Q74.357606640625,7.474889761581421,75.60290664062501,6.174939761581421Q76.84810664062499,4.874999761581421,78.609106640625,4.874999761581421L78.80160664062501,4.874999761581421Q80.873606640625,4.874999761581421,82.486406640625,6.233009761581421L83.267106640625,6.890429761581421C83.490706640625,7.078669761581421,83.769206640625,7.181329761581421,84.056506640625,7.181329761581421C84.750806640625,7.181329761581421,85.313706640625,6.593699761581421,85.313706640625,5.868829761581421C85.313706640625,5.4719497615814205,85.141706640625,5.09638976158142,84.845806640625,4.847229761581421L84.065006640625,4.189799761581421Q81.76130664062501,2.250003761581421,78.80160664062501,2.249999761581421L78.609106640625,2.249999761581421Q75.806606640625,2.249999761581421,73.824806640625,4.318789761581421Q71.843106640625,6.387579761581421,71.843106640625,9.313289761581421Q71.843106640625,12.07049976158142,73.632506640625,14.09859976158142Q75.421806640625,16.12659976158142,78.05410664062501,16.352799761581423L78.97050664062499,16.43149976158142Q80.593206640625,16.570899761581423,81.69620664062501,17.821099761581422Q82.799206640625,19.07129976158142,82.799206640625,20.770899761581422Q82.799206640625,22.57439976158142,81.57760664062499,23.84969976158142Q80.356006640625,25.12499976158142,78.628406640625,25.12499976158142L78.078506640625,25.12499976158142Q76.216106640625,25.12499976158142,74.660706640625,24.055799761581422L73.792606640625,23.45909976158142ZM119.439106640625,26.43749976158142C119.439106640625,27.162399761581423,118.876206640625,27.74999976158142,118.181806640625,27.74999976158142C117.487506640625,27.74999976158142,116.924606640625,27.162399761581423,116.924606640625,26.43749976158142L116.924606640625,13.22109976158142L114.083906640625,13.236199761581421C113.389606640625,13.239899761581421,112.823806640625,12.655299761581421,112.820306640625,11.930399761581421C112.816706640625,11.20551976158142,113.376806640625,10.614889761581422,114.071106640625,10.61120976158142L116.924606640625,10.596039761581421L116.924606640625,8.08614976158142Q116.924606640625,5.755419761581421,118.499006640625,4.102839761581421Q120.072606640625,2.451020761581421,122.303906640625,2.437530761581421L122.305906640625,2.437518761581421L122.312806640625,2.437499761581421C123.007206640625,2.437499761581421,123.570106640625,3.025125761581421,123.570106640625,3.749999761581421C123.570106640625,4.472069761581421,123.011406640625,5.058529761581421,122.319706640625,5.062479761581421L122.317606640625,5.062489761581421Q121.123906640625,5.070079761581421,120.281806640625,5.953909761581421Q119.439106640625,6.838529761581421,119.439106640625,8.08614976158142L119.439106640625,10.58267976158142L122.260806640625,10.567689761581422C122.955206640625,10.563999761581421,123.521006640625,11.148639761581421,123.524506640625,11.873529761581421C123.528006640625,12.59839976158142,122.968006640625,13.188999761581421,122.273606640625,13.192699761581421L119.439106640625,13.207799761581422L119.439106640625,26.43749976158142ZM89.085406640625,26.43749976158142C89.085406640625,27.162399761581423,89.64830664062501,27.74999976158142,90.34270664062501,27.74999976158142C91.037106640625,27.74999976158142,91.599906640625,27.162399761581423,91.599906640625,26.43749976158142L91.599906640625,15.802399761581421L93.14740664062501,14.48019976158142Q94.313706640625,13.483799761581421,95.82070664062499,13.483799761581421Q97.327806640625,13.483799761581421,98.494106640625,14.48019976158142Q100.041506640625,15.802399761581421,100.041506640625,17.88999976158142L100.041506640625,26.43749976158142C100.041506640625,27.162399761581423,100.604406640625,27.74999976158142,101.298806640625,27.74999976158142C101.993106640625,27.74999976158142,102.556006640625,27.162399761581423,102.556006640625,26.43749976158142L102.556006640625,17.88999976158142Q102.556006640625,14.55879976158142,100.086706640625,12.448899761581421Q98.225606640625,10.858759761581421,95.82070664062499,10.858759761581421Q93.445006640625,10.858759761581421,91.599906640625,12.410599761581421L91.599906640625,3.937499761581421C91.599906640625,3.2126297615814208,91.037106640625,2.624999761581421,90.34270664062501,2.624999761581421C89.64830664062501,2.624999761581421,89.085406640625,3.2126297615814208,89.085406640625,3.937499761581421L89.085406640625,26.43749976158142ZM46.338906640625,9.562499761581421L46.338906640625,18.37499976158142L37.178816640625,18.37499976158142L37.178816640625,9.562499761581421C37.178816640625,9.53097976158142,37.177746640625,9.499709761581421,37.175656640625,9.468749761581421C37.177746640625,9.437779761581421,37.178816640625,9.406519761581421,37.178816640625,9.374999761581421Q37.178816640625,7.4393397615814205,38.513346640625,6.067599761581421Q39.856016640625,4.687499761581421,41.758816640625,4.687499761581421Q43.661606640624996,4.687499761581421,45.004306640625,6.067599761581421Q46.338806640625,7.4393397615814205,46.338806640625,9.374999761581421C46.338806640625,9.40665976158142,46.339906640625,9.438059761581421,46.342006640625,9.46915976158142C46.339906640625,9.499989761581421,46.338906640625,9.53111976158142,46.338906640625,9.562499761581421ZM109.022006640625,7.687499761581421L109.022006640625,7.874999761581421C109.022006640625,8.59986976158142,108.459106640625,9.187499761581421,107.764706640625,9.187499761581421C107.070306640625,9.187499761581421,106.507406640625,8.59986976158142,106.507406640625,7.874999761581421L106.507406640625,7.687499761581421C106.507406640625,6.962629761581421,107.070306640625,6.374999761581421,107.764706640625,6.374999761581421C108.459106640625,6.374999761581421,109.022006640625,6.962629761581421,109.022006640625,7.687499761581421ZM127.341906640625,11.624999761581421C127.341906640625,10.900129761581422,127.904806640625,10.312499761581421,128.599206640625,10.312499761581421C129.293506640625,10.312499761581421,129.85640664062498,10.900129761581422,129.85640664062498,11.624999761581421L129.85640664062498,20.32499976158142Q129.85640664062498,22.39709976158142,131.385206640625,23.71869976158142Q132.556506640625,24.731199761581422,134.07720664062498,24.731199761581422Q135.598306640625,24.731199761581422,136.76930664062502,23.71869976158142L138.29830664062501,22.39709976158142L138.29830664062501,11.624999761581421C138.29830664062501,10.900129761581422,138.861306640625,10.312499761581421,139.55530664062502,10.312499761581421C140.24930664062498,10.312499761581421,140.812306640625,10.900129761581422,140.812306640625,11.624999761581421L140.812306640625,23.00779976158142L140.812306640625,23.01429976158142L140.812306640625,23.020799761581422L140.812306640625,25.68749976158142C140.812306640625,26.412399761581423,140.24930664062498,26.99999976158142,139.55530664062502,26.99999976158142C138.897306640625,26.99999976158142,138.35730664062498,26.47249976158142,138.302306640625,25.80059976158142Q136.45830664062498,27.356199761581422,134.07720664062498,27.356199761581422Q131.650506640625,27.356199761581422,129.781406640625,25.74049976158142Q127.341906640625,23.63149976158142,127.341906640625,20.32499976158142L127.341906640625,11.624999761581421ZM106.507406640625,26.43749976158142C106.507406640625,27.162399761581423,107.070306640625,27.74999976158142,107.764706640625,27.74999976158142C108.459106640625,27.74999976158142,109.022006640625,27.162399761581423,109.022006640625,26.43749976158142L109.022006640625,11.999999761581421C109.022006640625,11.275129761581422,108.459106640625,10.687499761581421,107.764706640625,10.687499761581421C107.070306640625,10.687499761581421,106.507406640625,11.275129761581422,106.507406640625,11.999999761581421L106.507406640625,26.43749976158142ZM62.826906640625,13.499999761581421C61.954006640624996,13.499999761581421,61.246306640625,14.087599761581421,61.246306640625,14.812499761581421C61.246306640625,15.53739976158142,61.954006640624996,16.12499976158142,62.826906640625,16.12499976158142L67.568506640625,16.12499976158142C68.44140664062499,16.12499976158142,69.149106640625,15.53739976158142,69.149106640625,14.812499761581421C69.149106640625,14.087599761581421,68.44140664062499,13.499999761581421,67.568506640625,13.499999761581421L62.826906640625,13.499999761581421Z" fill-rule="evenodd" fill="#6D28D9" fill-opacity="1"/></g><g><g><rect x="6.0263671875" y="2.5081787109375" width="12.63589096069336" height="2.0066890716552734" rx="1.0033445358276367" fill="#6D28D9" fill-opacity="1"/></g><g><path d="M8.960414371875,3.97625C8.948331451875,3.85964,8.942138671875,3.74129,8.942138671875,3.62148L8.942138671875,3.40193C8.942138671875,1.52309,10.465228671875,0,12.344068671875,0C14.222898671875,0,15.745998671875,1.52309,15.745998671875,3.40193L15.745998671875,3.62148C15.745998671875,3.74133,15.739798671875,3.85972,15.727708671875,3.97637C14.682228671875,3.54697,13.538938671875,3.31091,12.343918671875,3.31091C11.149008671875,3.31091,10.005808671875,3.54693,8.960414371875,3.97625Z" fill-rule="evenodd" fill="#6D28D9" fill-opacity="1"/></g><g><path d="M2.86923,18.46134625C2.83923,17.80760625,2.87683,17.13912625,2.98846,16.46348625L3.09204,15.83650625C3.13993,15.54669625,3.17504,15.25491625,3.19729,14.962026250000001L3.38589,12.47932325C3.23291,12.45453505,3.07593,12.441650391,2.91594,12.441650391C1.30551,12.441650391,0,13.74715625,0,15.35758625L0,15.54577625C0,17.14060625,1.28035,18.43639625,2.86923,18.46134625Z" fill-rule="evenodd" fill="#6D28D9" fill-opacity="1"/></g><g><path d="M21.819264669189455,18.46128625C21.849264669189452,17.80756625,21.811662669189452,17.13910625,21.700038669189453,16.46348625L21.596452669189453,15.83650625C21.548570669189452,15.54669625,21.51345266918945,15.25491625,21.491203669189453,14.962026250000001L21.303908776789452,12.49653245C21.486986669189452,12.46052415,21.676211669189453,12.441650391,21.869845669189452,12.441650391C23.480274669189452,12.441650391,24.785784669189454,13.74715625,24.785784669189454,15.35758625L24.785784669189454,15.54577625C24.785784669189454,17.15620625,23.480274669189452,18.461716250000002,21.869845669189452,18.461716250000002C21.85295166918945,18.461716250000002,21.836090669189453,18.46157625,21.819264669189455,18.46128625Z" fill-rule="evenodd" fill="#6D28D9" fill-opacity="1"/></g><g transform="matrix(0.9638119339942932,-0.2665829360485077,0.25124961137771606,0.9679223299026489,-3.305765724449884,2.2409572689575725)"><path d="M6.706787109375,14.724056015624999C6.706787109375,15.055849015625,6.975759109375,15.324821015625,7.307552109375,15.324821015625L9.028387109375,15.324821015625C9.360187109375,15.324821015625,9.629157109375,15.055849015625,9.629157109375,14.724056015624999C9.629157109375,14.392263015625,9.360187109375,14.123291015625,9.028387109375,14.123291015625L7.307552109375,14.123291015625C6.975759109375,14.123291015625,6.706787109375,14.392263015625,6.706787109375,14.724056015624999Z" fill="#6D28D9" fill-opacity="1"/></g><g transform="matrix(0.9638119339942932,0.2665829360485077,-0.25124961137771606,0.9679223299026489,3.901488107170735,-3.614163979756995)"><path d="M15.1630859375,13.945125351562499C15.1630859375,14.2769183515625,15.4320579375,14.5458903515625,15.763850937499999,14.5458903515625L17.4846859375,14.5458903515625C17.8164859375,14.5458903515625,18.0854559375,14.2769183515625,18.0854559375,13.945125351562499C18.0854559375,13.6133323515625,17.8164859375,13.3443603515625,17.4846859375,13.3443603515625L15.763850937499999,13.3443603515625C15.4320579375,13.3443603515625,15.1630859375,13.6133323515625,15.1630859375,13.945125351562499Z" fill="#6D28D9" fill-opacity="1"/></g><g><path d="M7.970458984375,20.9014450390625C7.970458984375,21.3780150390625,8.056813984375,21.8506350390625,8.225338984375,22.296415039062502L8.748051984375,23.6790750390625L9.250128984375,22.9448550390625C9.685718984375,22.3078650390625,10.277408984375,21.7932550390625,10.968648984375001,21.4502050390625L11.608498984375,21.132665039062502C12.146598984375,20.8656150390625,12.573238984375,20.417295039062502,12.813288984375,19.866625039062498C13.130458984375,19.1390850390625,13.091038984375,18.3053950390625,12.706658984375,17.6110230390625L12.344418984375,16.9566650390625L11.915238984375,16.9566650390625C9.736598984375,16.9566650390625,7.970458984375,18.7228050390625,7.970458984375,20.9014450390625Z" fill="#6D28D9" fill-opacity="1"/></g><g transform="matrix(-1,0,0,1,33.4365234375,0)"><path d="M16.71826171875,20.9748650390625C16.71826171875,21.4036650390625,16.78689791875,21.8297050390625,16.92156571875,22.2368150390625L17.39865571875,23.6790750390625L17.99418171875,22.8751850390625C18.43328171875,22.282455039062498,19.00679171875,21.8023950390625,19.66755171875,21.4744750390625L20.35630171875,21.132665039062502C20.89440171875,20.8656150390625,21.32104171875,20.417295039062502,21.56109171875,19.866625039062498C21.87826171875,19.1390850390625,21.83884171875,18.3053950390625,21.45446171875,17.6110230390625L21.09222171875,16.9566650390625L20.73646171875,16.9566650390625C18.51727171875,16.9566650390625,16.71826171875,18.7556750390625,16.71826171875,20.9748650390625Z" fill="#6D28D9" fill-opacity="1"/></g><g><path d="M10.58776894897461,13.37605375C9.71903994897461,14.75783375,10.71217294897461,16.55532375,12.34434894897461,16.55532375C13.97652894897461,16.55532375,14.969658948974608,14.75783375,14.100928948974609,13.37605375L13.55575894897461,12.50891875C13.29388894897461,12.09238075,12.83636894897461,11.839599609,12.34434894897461,11.839599609C11.852328948974609,11.839599609,11.39481894897461,12.09238075,11.13293794897461,12.50891875L10.58776894897461,13.37605375Z" fill="#6D28D9" fill-opacity="1"/></g><g><path d="M6.06232834375,10.093134921875C5.73008034375,10.853624921875,5.73503234375,11.719164921875,6.07595934375,12.475804921875L6.51251934375,13.444684921875L6.55422734375,12.827534921875C6.61384734375,11.945444921875,7.31627734375,11.243204921875,8.19838734375,11.183814921875L8.30424734375,11.176684921875001C8.68313734375,11.151184921875,9.03819734375,10.982724921875,9.29759734375,10.705384921875L9.41042734375,10.584764921875C9.88554734375,10.076804921875,9.88554734375,9.287484921875,9.41042734375,8.779526921875C9.09041734375,8.437400921875,8.613187343749999,8.290287121875,8.15609734375,8.392859921875L7.7083073437500005,8.493345921875C7.04827734375,8.641458921875,6.49831534375,9.095198921875,6.22750234375,9.715064921875L6.06232834375,10.093134921875Z" fill="#6D28D9" fill-opacity="1"/></g><g transform="matrix(-1,0,0,1,38.29638671875,0)"><path d="M19.669994359375,10.093134921875C19.337746359375,10.853624921875,19.342698359375,11.719164921875,19.683625359375,12.475804921875L20.120185359375,13.444684921875L20.161893359375,12.827534921875C20.221513359375,11.945444921875,20.923943359375,11.243204921875,21.806053359375,11.183814921875L21.911913359375,11.176684921875001C22.290803359375,11.151184921875,22.645863359375,10.982724921875,22.905263359375,10.705384921875L23.018093359375,10.584764921875C23.493213359374998,10.076804921875,23.493213359374998,9.287484921875,23.018093359375,8.779526921875C22.698083359375,8.437400921875,22.220853359375,8.290287121875,21.763763359374998,8.392859921875L21.315973359375,8.493345921875C20.655943359375,8.641458921875,20.105981359375,9.095198921875,19.835168359375,9.715064921875L19.669994359375,10.093134921875Z" fill="#6D28D9" fill-opacity="1"/></g><g><path d="M2.964599609375,12.48837859375L2.964599609375,13.94635859375L4.235499609375,13.94635859375L4.235499609375,13.19855859375C4.235499609375,12.43068859375,4.353039609375,11.66738859375,4.584039609375,10.935128593750001L4.720539609375,10.50242859375C5.045089609375,9.47360859375,5.645499609374999,8.55346859375,6.456479609375,7.84204859375C7.706519609375,6.74546859375,9.361259609375,6.22729859375,11.013479609375,6.41502859375L12.392919609375,6.57176859375L12.392919609375,3.06005859375C7.185799609375,3.06005859375,2.964599609375,7.28125859375,2.964599609375,12.48837859375Z" fill="#6D28D9" fill-opacity="1"/></g><g transform="matrix(1,0,0,-1,0,60)"><path d="M9.9751137109375,30.531444C5.4268537109375,31.372,2.2327887109375,35.49087,2.5509477109375,40.105199999999996L2.9645457109375,46.1037L4.2354437109375,46.1037L4.2354437109375,39.18691C4.2354437109375,38.66199,4.4068937109375,38.15144,4.7237137109375,37.732910000000004L5.3696037109375006,36.87967C7.2267837109375,34.4263,11.0139337109375,34.77433,12.3928537109375,37.52508L12.3928537109375,30L10.2961337109375,30.46612C10.1895237109375,30.48982,10.0825037109375,30.511598,9.9751137109375,30.531444Z" fill="#6D28D9" fill-opacity="1"/></g><g transform="matrix(-1,0,0,1,43.642578125,0)"><path d="M21.8212890625,12.48837859375L21.8212890625,13.94635859375L23.0921890625,13.94635859375L23.0921890625,13.19855859375C23.0921890625,12.43068859375,23.2097290625,11.66738859375,23.4407290625,10.935128593750001L23.5772290625,10.50242859375C23.9017790625,9.47360859375,24.5021890625,8.55346859375,25.313169062500002,7.84204859375C26.5632090625,6.74546859375,28.2179490625,6.22729859375,29.8701690625,6.41502859375L31.2496090625,6.57176859375L31.2496090625,3.06005859375C26.0424890625,3.06005859375,21.8212890625,7.28125859375,21.8212890625,12.48837859375Z" fill="#6D28D9" fill-opacity="1"/></g><g transform="matrix(-1,0,0,-1,45.586669921875,60)"><path d="M30.7758949609375,30.531444C26.2276349609375,31.372,23.0335699609375,35.49087,23.3517289609375,40.105199999999996L23.7653269609375,46.1037L25.0362249609375,46.1037L25.0362249609375,39.18691C25.0362249609375,38.66199,25.2076749609375,38.15144,25.5244949609375,37.732910000000004L26.1703849609375,36.87967C28.0275649609375,34.4263,31.8147149609375,34.77433,33.1936349609375,37.52508L33.1936349609375,30L31.0969149609375,30.46612C30.9903049609375,30.48982,30.8832849609375,30.511598,30.7758949609375,30.531444Z" fill="#6D28D9" fill-opacity="1"/></g><g transform="matrix(-1,0,0,1,43.642578125,0)"><path d="M21.8212890625,12.48837859375L21.8212890625,13.94635859375L22.6061910625,13.94635859375L22.6061910625,13.09575859375C22.6061910625,12.39502859375,22.6992640625,11.69736859375,22.8829690625,11.02110859375L23.0805190625,10.29386859375C23.4092190625,9.08384859375,24.1280790625,8.01613859375,25.1255790625,7.25639859375C26.4863890625,6.219938593749999,28.2410190625,5.85008859375,29.9044090625,6.24908859375L31.2496090625,6.57176859375L31.2496090625,3.06005859375C26.0424890625,3.06005859375,21.8212890625,7.28125859375,21.8212890625,12.48837859375Z" fill="#6D28D9" fill-opacity="1"/></g></g></g></svg>
