<svg width="16" height="16" viewBox="0 0 16 16" fill="none" xmlns="http://www.w3.org/2000/svg">
<g clip-path="url(#clip0_2965_7389)">
<path d="M6.58724 6.58675C6.39074 6.76985 6.23314 6.99065 6.12382 7.23598C6.01451 7.48131 5.95573 7.74615 5.951 8.01469C5.94626 8.28323 5.99566 8.54998 6.09625 8.79901C6.19683 9.04805 6.34655 9.27427 6.53647 9.46419C6.72639 9.6541 6.95261 9.80382 7.20165 9.90441C7.45068 10.005 7.71743 10.0544 7.98597 10.0497C8.25451 10.0449 8.51934 9.98615 8.76467 9.87683C9.01001 9.76752 9.23081 9.60992 9.41391 9.41342M7.15397 3.38683C7.43485 3.35184 7.71759 3.33403 8.00064 3.3335C12.6673 3.3335 14.6673 8.00016 14.6673 8.00016C14.3693 8.63825 13.9954 9.23812 13.554 9.78683M4.40732 4.4069C3.08148 5.30998 2.02057 6.55041 1.33398 8.00023C1.33398 8.00023 3.33398 12.6669 8.00065 12.6669C9.27793 12.6703 10.5278 12.297 11.594 11.5936M1.33398 1.3335L14.6673 14.6668" stroke="#55575E" stroke-opacity="0.5" stroke-width="1.2" stroke-linecap="round" stroke-linejoin="round"/>
</g>
<defs>
<clipPath id="clip0_2965_7389">
<rect width="16" height="16" fill="white"/>
</clipPath>
</defs>
</svg>
