<svg xmlns="http://www.w3.org/2000/svg" xmlns:xlink="http://www.w3.org/1999/xlink" fill="none" version="1.1" width="16" height="16" viewBox="0 0 16 16"><g><g style="opacity:0;"><rect x="0" y="0" width="16" height="16" rx="0" fill="#D8D8D8" fill-opacity="1"/></g><g><path d="M13.5,9.75L13.5,12.5Q13.5,12.5985,13.4808,12.6951Q13.4616,12.7917,13.4239,12.8827Q13.3862,12.9737,13.3315,13.0556Q13.2767,13.1375,13.2071,13.2071Q13.1375,13.2767,13.0556,13.3315Q12.9737,13.3862,12.8827,13.4239Q12.7917,13.4616,12.6951,13.4808Q12.5985,13.5,12.5,13.5L3.5,13.5Q3.40151,13.5,3.30491,13.4808Q3.20831,13.4616,3.11732,13.4239Q3.02632,13.3862,2.94443,13.3315Q2.86254,13.2767,2.79289,13.2071Q2.72325,13.1375,2.66853,13.0556Q2.61381,12.9737,2.57612,12.8827Q2.53843,12.7917,2.51921,12.6951Q2.5,12.5985,2.5,12.5L2.5,3.5Q2.5,3.40151,2.51921,3.30491Q2.53843,3.20831,2.57612,3.11732Q2.61381,3.02632,2.66853,2.94443Q2.72325,2.86254,2.79289,2.79289Q2.86254,2.72325,2.94443,2.66853Q3.02632,2.61381,3.11732,2.57612Q3.20831,2.53843,3.30491,2.51921Q3.40151,2.5,3.5,2.5L7.25,2.5Q7.32387,2.5,7.39632,2.48559Q7.46877,2.47118,7.53701,2.44291Q7.60526,2.41464,7.66668,2.3735999999999997Q7.7281,2.33256,7.78033,2.28033Q7.83256,2.2281,7.8736,2.16668Q7.91464,2.10526,7.94291,2.03701Q7.97118,1.9687670000000002,7.98559,1.896318Q8,1.823869,8,1.75Q8,1.676131,7.98559,1.603682Q7.97118,1.5312329999999998,7.94291,1.462987Q7.91464,1.394742,7.8736,1.333322Q7.83256,1.271903,7.78033,1.21967Q7.7281,1.167437,7.66668,1.126398Q7.60526,1.0853586,7.53701,1.0570903Q7.46877,1.0288221,7.39632,1.014411Q7.32387,1,7.25,1L3,1C1.8954309999999999,1,1,1.8954309999999999,1,3L1,13C1,14.1046,1.8954309999999999,15,3,15L13,15C14.1046,15,15,14.1046,15,13L15,10.25L15,9.75Q15,9.67613,14.9856,9.60368Q14.9712,9.53123,14.9429,9.46299Q14.9146,9.39474,14.8736,9.33332Q14.8326,9.2719,14.7803,9.21967Q14.7281,9.16744,14.6667,9.1264Q14.6053,9.08536,14.537,9.05709Q14.4688,9.02882,14.3963,9.01441Q14.3239,9,14.25,9Q14.1761,9,14.1037,9.01441Q14.0312,9.02882,13.963,9.05709Q13.8947,9.08536,13.8333,9.1264Q13.7719,9.16744,13.7197,9.21967Q13.6674,9.2719,13.6264,9.33332Q13.5854,9.39474,13.5571,9.46299Q13.5288,9.53123,13.5144,9.60368Q13.5,9.67613,13.5,9.75ZM7.53033,7.54096Q7.4781,7.59319,7.43706,7.65461Q7.39602,7.71603,7.36775,7.78428Q7.33948,7.85252,7.32507,7.92497Q7.31066,7.99742,7.31066,8.071290000000001Q7.31066,8.14516,7.32507,8.21761Q7.33948,8.29005,7.36775,8.3583Q7.39602,8.426549999999999,7.43706,8.48797Q7.4781,8.549389999999999,7.53033,8.60162Q7.63582,8.70711,7.77365,8.764199999999999Q7.91148,8.821290000000001,8.06066,8.821290000000001Q8.20984,8.821290000000001,8.34767,8.764199999999999Q8.4855,8.70711,8.59099,8.60162L14.6014,2.5912100000000002Q14.7069,2.4857199999999997,14.764,2.34789Q14.8211,2.21007,14.8211,2.06088Q14.8211,1.911697,14.764,1.773869Q14.7069,1.636041,14.6014,1.530551Q14.5492,1.478318,14.4877,1.437279Q14.4263,1.39624,14.3581,1.367972Q14.2898,1.339704,14.2174,1.3252920000000001Q14.1449,1.310881,14.0711,1.310881Q13.9972,1.310881,13.9247,1.3252920000000001Q13.8523,1.339704,13.7841,1.367972Q13.7158,1.39624,13.6544,1.437279Q13.593,1.478318,13.5407,1.530551L7.53033,7.54096Z" fill-rule="evenodd" fill="#06295D" fill-opacity="1"/></g></g></svg>
